<?xml version="1.0" standalone="no"?>
<!DOCTYPE svg PUBLIC "-//W3C//DTD SVG 20010904//EN"
 "http://www.w3.org/TR/2001/REC-SVG-20010904/DTD/svg10.dtd">
<svg version="1.0" xmlns="http://www.w3.org/2000/svg"
 width="512.000000pt" height="512.000000pt" viewBox="0 0 512.000000 512.000000"
 preserveAspectRatio="xMidYMid meet">
<metadata>
Created by potrace 1.14, written by Peter Selinger 2001-2017
</metadata>
<g transform="translate(0.000000,512.000000) scale(0.100000,-0.100000)"
fill="#000000" stroke="none">
<path d="M462 2563 l3 -2558 1015 0 c1436 1 1779 10 2012 55 458 88 806 363
1012 800 40 86 90 224 101 279 2 11 6 24 8 29 3 4 8 25 11 47 4 22 8 47 11 55
10 36 17 125 20 256 2 138 -1 177 -30 339 -12 64 -60 204 -97 283 -106 224
-284 419 -498 547 -36 22 -67 40 -69 42 -2 2 29 36 70 76 88 86 153 168 215
273 66 111 132 278 150 380 3 15 11 56 18 90 14 66 15 341 1 419 -63 364 -286
705 -590 900 -202 129 -413 194 -710 221 -38 3 -86 8 -105 11 -19 3 -601 7
-1293 10 l-1257 5 2 -2559z m2528 2244 c25 -2 79 -7 120 -11 313 -30 525 -122
716 -311 124 -123 206 -257 258 -422 35 -112 41 -158 41 -303 -1 -145 -8 -196
-42 -305 -50 -160 -133 -296 -252 -416 -112 -113 -179 -153 -488 -293 -61 -28
-112 -55 -113 -61 -1 -5 56 -27 127 -48 346 -103 414 -130 553 -222 203 -134
338 -318 404 -550 115 -404 -6 -892 -300 -1204 -157 -167 -399 -287 -639 -316
-27 -4 -57 -8 -65 -10 -15 -4 -155 -13 -325 -21 -50 -2 -570 -6 -1157 -8
l-1067 -5 0 2260 0 2261 1092 -5 c601 -3 1112 -7 1137 -10z"/>
<path d="M1452 4322 l-52 -3 2 -702 3 -702 640 1 c673 0 785 4 904 29 177 37
336 130 429 251 36 46 88 145 103 196 37 124 44 309 14 418 -1 3 -5 21 -9 40
-15 65 -79 180 -135 242 -105 116 -260 190 -441 213 -93 11 -1309 26 -1458 17z
m985 -303 c407 -4 495 -11 580 -49 121 -53 188 -158 196 -307 14 -226 -98
-377 -314 -422 -98 -21 -125 -22 -666 -27 l-533 -4 0 405 0 405 203 2 c111 2
204 2 207 1 3 -1 150 -3 327 -4z"/>
<path d="M1410 2392 c-7 -3 -10 -276 -10 -794 l0 -790 763 5 c419 3 776 7 792
10 17 3 53 8 80 11 249 27 466 176 570 391 138 285 94 668 -101 884 -139 153
-313 233 -559 257 -22 2 -56 6 -76 8 -95 13 -381 19 -892 20 -306 0 -562 0
-567 -2z m1250 -306 c80 -4 163 -8 185 -11 165 -17 175 -19 241 -40 158 -51
267 -179 293 -341 29 -187 -26 -376 -136 -461 -86 -67 -141 -87 -308 -109 -22
-3 -309 -8 -637 -11 l-598 -5 0 489 c0 269 2 492 4 494 7 6 792 2 956 -5z"/>
</g>
</svg>
